<?xml version="1.0" encoding="iso-8859-1"?>
<!-- Generator: Adobe Illustrator 19.0.0, SVG Export Plug-In . SVG Version: 6.00 Build 0)  -->
<svg version="1.1" id="Layer_1" xmlns="http://www.w3.org/2000/svg" xmlns:xlink="http://www.w3.org/1999/xlink" x="0px" y="0px"
	 viewBox="0 0 459.757 459.757" style="enable-background:new 0 0 459.757 459.757;" xml:space="preserve">
<g>
	<g>
		<g>
			<path d="M424.156,47.703H131.007c-19.631,0-35.601,15.97-35.601,35.601v42.731h32.497V83.304c0-1.711,1.392-3.103,3.104-3.103
				h293.149c1.712,0,3.104,1.392,3.104,3.103v293.15c0,1.711-1.392,3.103-3.104,3.103H131.007c-1.712,0-3.104-1.392-3.104-3.103
				v-42.732H95.406v42.732c0,19.63,15.97,35.601,35.601,35.601h293.149c19.631,0,35.601-15.97,35.601-35.601V83.304
				C459.758,63.674,443.787,47.703,424.156,47.703z"/>
			<path d="M206.866,317.786l64.929-64.929c12.714-12.715,12.673-33.281,0-45.958l-64.929-64.929
				c-18.332-18.332-49.743-8.756-54.838,16.562H32.497C14.55,158.533,0,173.081,0,191.029v77.697
				c0,17.948,14.55,32.497,32.497,32.497h119.531C157.125,326.549,188.52,336.133,206.866,317.786z M32.497,191.029h151.39v-26.081
				l64.929,64.929l-64.929,64.929v-26.081H32.497V191.029z"/>
		</g>
	</g>
</g>
<g>
</g>
<g>
</g>
<g>
</g>
<g>
</g>
<g>
</g>
<g>
</g>
<g>
</g>
<g>
</g>
<g>
</g>
<g>
</g>
<g>
</g>
<g>
</g>
<g>
</g>
<g>
</g>
<g>
</g>
</svg>
